<?xml version="1.0" encoding="UTF-8" standalone="no"?>
<!DOCTYPE svg PUBLIC "-//W3C//DTD SVG 1.1//EN" "http://www.w3.org/Graphics/SVG/1.1/DTD/svg11.dtd">
<svg width="100%" height="100%" viewBox="0 0 1886 1886" version="1.1" xmlns="http://www.w3.org/2000/svg" xmlns:xlink="http://www.w3.org/1999/xlink" xml:space="preserve" xmlns:serif="http://www.serif.com/" style="fill-rule:evenodd;clip-rule:evenodd;stroke-linecap:round;stroke-linejoin:round;stroke-miterlimit:1.5;">
    <g transform="matrix(1,0,0,0.987249,0,0)">
        <rect x="0" y="0" width="1885.03" height="1909.38" style="fill:none;"/>
    </g>
    <g transform="matrix(0.708105,0,0,0.708105,283.487,283.155)">
        <g id="レイヤー1">
            <g>
                <g>
                    <path d="M99.226,511.839C104.891,516.73 108.696,525.001 114.035,530.34C123.068,539.373 131.789,548.312 141.133,557.657C144.217,560.741 148.344,562.682 151.404,565.743" style="fill:white;stroke:white;stroke-width:22.77px;"/>
                    <path d="M293.812,680.959C295.82,686.664 324.177,707.839 327.085,710.747C340.416,724.078 368.117,759.026 379.179,775.619" style="fill:white;stroke:white;stroke-width:22.77px;"/>
                    <path d="M25,354.936C17.871,331.746 13.685,289.017 18.843,269.764C23.724,251.539 52.348,240.197 72.495,249.659" style="fill:white;stroke:white;stroke-width:22.77px;"/>
                    <path d="M89.117,242.628C97.346,240.24 127.723,240.904 135.674,242.168" style="fill:white;stroke:white;stroke-width:22.77px;"/>
                    <path d="M189.443,245.46C203.553,244.731 249.266,247.976 260.746,253.96" style="fill:white;stroke:white;stroke-width:22.77px;"/>
                    <path d="M335.686,261.134C346.477,262.951 392.73,268.422 386.819,269.764" style="fill:white;stroke:white;stroke-width:22.77px;"/>
                    <path d="M423.422,275.291C439.304,278.009 481.506,284.351 473.3,285.435" style="fill:white;stroke:white;stroke-width:22.77px;"/>
                    <path d="M637.776,326.728C650.202,330.498 669.527,335.408 681.887,340.178" style="fill:white;stroke:white;stroke-width:22.77px;"/>
                    <path d="M770.512,369.054C777.048,372.168 800.43,378.285 808.376,384.559" style="fill:white;stroke:white;stroke-width:22.77px;"/>
                    <path d="M895.903,423.16C913.626,429.06 935.171,450.811 939.501,454.06" style="fill:white;stroke:white;stroke-width:22.77px;"/>
                    <path d="M489.864,967.927C487.928,971.072 527.807,1001.08 539.721,1003.71" style="fill:white;stroke:white;stroke-width:22.77px;"/>
                    <path d="M983.931,1192.7C972.059,1201.16 1030.69,1158.74 1043.46,1149.95" style="fill:white;stroke:white;stroke-width:22.77px;"/>
                    <path d="M1247.9,916.327C1259.92,895.791 1269.7,875.034 1274.54,869.822" style="fill:white;stroke:white;stroke-width:22.77px;"/>
                    <path d="M1250.88,894.551C1249.92,894.753 1251.92,892.211 1252.32,891.473C1253.68,888.979 1255.55,886.353 1257.57,884.333" style="fill:white;stroke:white;stroke-width:22.77px;"/>
                    <path d="M1153.49,550.57C1152.79,544.568 1184.14,530.676 1189.46,530.676" style="fill:white;stroke:white;stroke-width:22.77px;"/>
                    <g transform="matrix(0.957356,0,0,0.957356,40.1929,40.1929)">
                        <path d="M1406.07,543.09C1448.82,568.308 1492.27,596.834 1516.86,639.952C1524.39,653.149 1530.07,667.599 1539.97,679.126C1549.14,689.808 1561.37,697.313 1573.34,704.735C1679.82,770.785 1781.78,844.125 1878.26,924.072C1882.79,927.819 1887.57,934.543 1883.48,938.753C1739.98,888.897 1597.75,835.381 1456.98,778.274C1438.33,770.71 1419.06,762.955 1398.94,763.352C1383.5,763.658 1368.51,768.803 1354.64,775.594C1325.12,790.041 1299.47,812.289 1281,839.463C1277.8,844.162 1274.68,849.143 1269.97,852.31C1265.25,855.476 1258.37,856.263 1254.15,852.451C1250.97,849.573 1250.13,844.99 1249.46,840.753C1234.13,743.505 1218.81,646.257 1203.48,549.008C1202.84,544.946 1202.29,540.432 1204.61,537.034C1206.57,534.16 1210.08,532.852 1213.36,531.71C1252.45,518.124 1293.75,504.344 1334.44,511.939C1360.17,516.743 1383.52,529.792 1406.07,543.09ZM940.046,1354.8C928.683,1340.61 906.737,1338.32 890.21,1345.9C873.683,1353.48 861.961,1368.85 853.783,1385.09C850.052,1369.34 846.321,1353.58 842.59,1337.83C842.134,1335.9 841.484,1333.73 839.69,1332.89C838.056,1332.12 836.143,1332.8 834.477,1333.49C822.427,1338.47 810.664,1344.15 799.266,1350.49C789.17,1356.1 779.031,1362.54 772.733,1372.22C765.999,1382.57 764.457,1395.37 763.406,1407.67C758.332,1467.06 760.533,1527.43 747.211,1585.53C741.503,1610.42 730.91,1637.11 707.922,1648.24C702.647,1650.79 696.617,1652.4 690.917,1651.04C685.218,1649.67 680.123,1644.68 680.137,1638.82C680.436,1515.61 680.714,1392.05 666.088,1269.71C658.737,1208.24 683.281,1147.92 707.325,1090.87C708.321,1088.5 709.489,1085.95 711.785,1084.8C714.184,1083.61 717.053,1084.32 719.632,1085.05C803.051,1108.81 886.469,1132.56 969.888,1156.32C977.645,1158.53 987.276,1163.59 985.642,1171.49C984.839,1175.37 981.408,1178.05 978.212,1180.39C948.125,1202.4 918.038,1224.41 887.951,1246.41C900.064,1243.98 913.463,1242.56 924.055,1248.92C934.647,1255.29 938.988,1272.46 929.161,1279.95C919.129,1287.59 909.098,1295.24 899.066,1302.89C935.159,1301.27 969.474,1332.62 971.128,1368.7C972.782,1404.8 941.477,1439.15 905.388,1440.84C918.863,1430.03 932.682,1418.81 940.998,1403.66C949.313,1388.52 950.843,1368.29 940.046,1354.8ZM1240.2,905.26C1222.86,937.699 1204.03,969.342 1183.79,1000.06C1174.15,1014.69 1164.17,1029.14 1152.6,1042.3C1135.03,1062.28 1114.08,1078.96 1093.17,1095.4C1075.97,1108.93 1058.71,1122.37 1041.38,1135.74C1037.43,1138.78 1032.65,1142.01 1027.85,1140.64C1021.04,1138.69 1019.94,1129.64 1020.18,1122.57C1022.18,1063.65 1024.17,1004.74 1026.17,945.823C1026.33,940.914 1027.18,934.964 1031.72,933.087C1041.48,929.05 1048.43,918.964 1048.73,908.403C1049.02,897.842 1042.65,887.385 1033.12,882.81C1028.89,880.774 1028.45,875.018 1028.61,870.32C1030.57,813.651 1032.53,756.983 1034.49,700.314C1034.53,699.072 1034.7,697.609 1035.79,697.006C1037.1,696.275 1038.66,697.362 1039.77,698.382C1099.66,753.423 1159.56,808.465 1219.45,863.506C1223.96,867.649 1228.84,872.64 1228.53,878.755C1228.03,888.751 1232.49,898.876 1240.2,905.26ZM720.721,1068.49C746.51,977.645 772.298,886.803 798.086,795.961C799.734,790.155 801.879,783.72 807.254,780.975C814.107,777.476 822.198,781.794 828.651,785.985C882.417,820.907 936.184,855.83 989.951,890.752C992.803,892.605 996.063,895.585 994.849,898.761C990.462,910.233 995.495,924.524 1006.1,930.716C1009.78,932.861 1010.09,937.959 1009.96,942.213C1008.58,988.412 1007.2,1034.61 1005.82,1080.81C1005.47,1092.58 1005.12,1104.35 1004.76,1116.12C1004.45,1126.81 1002.28,1140.07 992.07,1143.23C987.307,1144.7 982.183,1143.33 977.39,1141.96C891.834,1117.47 806.278,1092.98 720.721,1068.49ZM720.709,419.882C715.305,429.103 730.276,440.36 726.029,450.168C703.386,502.468 680.742,554.769 658.099,607.069C652.539,619.911 643.616,634.96 629.646,634.127C623.736,633.774 618.475,630.445 613.512,627.218C574.471,601.835 535.43,576.452 496.388,551.07C491.943,548.179 486.89,542.965 489.698,538.467C493.978,531.613 483.386,521.631 488.457,515.34C535.625,456.834 582.793,398.327 629.961,339.821C631.104,338.403 632.481,336.862 634.302,336.802C635.914,336.749 637.291,337.889 638.495,338.963C664.234,361.915 689.974,384.868 715.714,407.82C719.249,410.973 723.105,415.796 720.709,419.882ZM344.306,716.62C341.473,713.249 343.327,707.982 346.214,704.657C349.102,701.332 352.974,698.672 354.646,694.598C356.178,690.867 355.573,686.615 356.45,682.679C357.518,677.884 360.692,673.875 363.775,670.051C390.605,636.765 417.435,603.479 444.266,570.193C446.889,566.938 449.688,563.55 453.573,562.005C459.15,559.786 465.707,562.031 470.189,566.022C474.671,570.014 477.511,575.482 480.253,580.82C509.108,637.002 537.964,693.184 566.819,749.366C570.09,755.735 567.661,763.364 566.072,770.346C564.484,777.327 564.488,786.076 570.488,789.984C575.462,793.225 573.659,800.82 571.289,806.264C548,859.758 524.71,913.251 501.421,966.745C459.256,940.155 433.77,894.072 413.646,848.466C393.522,802.86 376.381,754.779 344.306,716.62ZM858.469,582.218C860.151,576.244 861.915,570.1 865.742,565.214C869.57,560.328 876.015,556.953 882.006,558.573C885.598,559.544 888.508,562.109 891.276,564.596C925.551,595.386 959.825,626.175 994.1,656.965C998.184,660.634 1002.67,665.467 1001.38,670.806C998.443,683.084 1018.67,690.463 1018.24,703.081C1016.28,760.883 1014.31,818.685 1012.35,876.487C1012.28,878.419 1012.06,880.65 1010.46,881.731C1008.47,883.07 1005.83,881.756 1003.82,880.453C948.178,844.382 892.536,808.311 836.893,772.24C833.745,770.2 830.145,766.873 831.557,763.398C836.024,752.405 831.699,738.54 821.774,732.036C817.874,729.481 818.676,723.636 819.939,719.148C829.221,686.161 838.503,653.174 847.785,620.187C851.347,607.531 854.908,594.875 858.469,582.218ZM614.569,757.637C612.033,754.533 613.499,749.931 615.071,746.243C621.674,730.75 628.277,715.257 634.881,699.764C636.979,694.842 639.2,689.745 643.225,686.219C649.062,681.104 657.732,680.323 665.239,682.288C672.746,684.253 679.382,688.581 685.868,692.841C711.622,709.757 737.375,726.673 763.129,743.588C768.057,746.825 773.071,750.139 776.761,754.737C788.002,768.747 783.622,789.167 778.682,806.436C774.094,822.475 769.506,838.514 764.918,854.553C750.03,906.602 735.141,958.651 720.252,1010.7C684.867,942.404 649.482,874.108 614.097,805.811C611.913,801.595 609.888,795.978 613.176,792.552C621.992,783.364 622.626,767.498 614.569,757.637L614.569,757.637ZM437.836,277.585C442.05,276.475 446.502,277.384 450.76,278.308C505.809,290.254 560.38,304.399 614.301,320.698C617.042,321.526 620.241,322.852 620.738,325.672C573.91,383.733 527.082,441.795 480.253,499.857C477.338,503.472 473.964,507.355 469.36,507.96C461.949,508.933 456.641,501.232 453.216,494.587C428.155,445.962 403.093,397.337 378.031,348.711C375.835,344.45 374.108,338.226 378.185,335.705C385.237,331.346 381.581,319.841 386.086,312.881C387.635,310.489 390.055,308.82 392.412,307.216C404.766,298.806 417.12,290.396 429.474,281.985C432.091,280.204 434.775,278.391 437.836,277.585ZM840.02,529.661C833.796,539.314 850.701,550.615 847.591,561.671C833.991,610.014 820.39,658.357 806.79,706.7C805.039,712.921 803.232,719.267 799.577,724.597C795.922,729.926 790.023,734.153 783.561,734.082C777.95,734.019 772.911,730.841 768.214,727.772C739.879,709.259 711.545,690.745 683.211,672.232C679.47,669.788 675.207,666.064 676.431,661.767C679.123,652.316 675.563,641.399 667.817,635.351C665.014,633.163 666.168,628.749 667.576,625.484C689.719,574.164 711.862,522.844 734.005,471.524C736.46,465.834 739.001,460.012 743.294,455.543C747.586,451.073 754.069,448.17 760.045,449.81C763.878,450.862 766.995,453.586 769.965,456.228C791.02,474.956 812.074,493.683 833.129,512.41C838.192,516.915 843.693,523.965 840.02,529.661L840.02,529.661ZM1179.26,546.888C1181.27,545.734 1183.96,544.642 1185.69,546.172C1186.65,547.024 1186.91,548.401 1187.11,549.672C1203.29,651.954 1219.46,754.236 1235.63,856.518C1175.67,801.342 1115.72,746.167 1055.76,690.991C1053.56,688.966 1051.16,685.978 1052.55,683.329C1059.43,670.219 1055.26,652.35 1043.29,643.643C1087.06,609.233 1131.02,574.693 1179.26,546.888ZM302.096,672.318C248.209,625.93 192.777,581.339 135.921,538.643C128.085,532.759 119.939,526.576 115.631,517.775C111.324,508.973 112.283,496.749 120.409,491.274C153.616,468.899 186.824,446.525 220.031,424.151C225.605,420.395 233.6,416.79 238.361,421.534C240.085,423.253 240.839,425.691 241.531,428.024C263.316,501.412 285.101,574.799 306.887,648.186C309.463,656.867 310.516,668.988 302.096,672.318ZM516.228,976.188C515.644,974.325 516.439,972.339 517.22,970.549C541.124,915.779 565.028,861.009 588.933,806.239C589.753,804.359 591.239,802.119 593.234,802.594C594.465,802.888 595.189,804.128 595.77,805.253C635.576,882.276 675.382,959.298 715.188,1036.32C647.835,1029.37 581.745,1010.36 521.001,980.442C519.033,979.472 516.884,978.282 516.228,976.188L516.228,976.188ZM311.112,256.718C313.496,258.624 314.946,261.432 316.327,264.154C321.702,274.746 327.077,285.338 332.452,295.93C336.759,304.417 325.326,315.033 329.816,323.424C331.892,327.304 327.771,331.501 324.136,333.981C306.448,346.045 288.761,358.11 271.074,370.174C269.596,371.182 268.055,372.216 266.289,372.503C264.231,372.838 262.164,372.114 260.205,371.401C255.06,369.531 249.916,367.66 244.772,365.789C242.929,365.119 241.007,364.397 239.7,362.935C238.527,361.624 237.995,359.877 237.496,358.19C226.629,321.462 215.761,284.735 204.894,248.008C204.273,245.91 203.899,243.122 205.781,242.007C206.72,241.452 207.894,241.571 208.976,241.707C239.33,245.536 269.684,249.366 300.038,253.195C303.933,253.686 308.046,254.266 311.112,256.718L311.112,256.718ZM352.796,657.831C348.617,662.937 340.505,660.872 334.401,658.366C331.35,657.112 328.152,655.75 326.145,653.133C324.753,651.318 324.073,649.071 323.421,646.878C301.293,572.465 279.164,498.051 257.036,423.638C256.566,422.058 256.142,420.196 257.144,418.888C258.729,416.821 262,418.087 264.187,419.501C316.828,453.523 369.469,487.546 422.11,521.568C426.139,524.172 430.273,526.875 433.017,530.81C437.598,537.377 437.436,546.348 434.599,553.835C431.762,561.322 426.606,567.662 421.534,573.857C398.622,601.849 375.709,629.84 352.796,657.831ZM89.53,488.732C31.669,425.359 -1.005,339.591 0.024,253.783C0.04,252.429 0.227,250.803 1.442,250.207C2.583,249.648 3.911,250.359 4.978,251.048C20.378,260.991 35.778,270.935 51.178,280.878C55.213,283.483 59.75,287.037 59.388,291.826C58.54,303.064 65.561,314.462 75.978,318.761C79.428,320.184 80.262,324.603 80.605,328.32C85.41,380.36 90.215,432.401 95.019,484.442C95.258,487.024 94.393,490.735 91.832,490.327C90.891,490.178 90.172,489.436 89.53,488.732L89.53,488.732ZM205.417,414.849C173.815,436.14 142.214,457.431 110.612,478.723C105.992,428.117 101.372,377.512 96.752,326.907C96.505,324.201 96.347,321.185 98.066,319.081C101.302,315.122 107.642,317.654 111.933,320.433C141.888,339.835 171.843,359.237 201.798,378.639C210.058,383.989 219.455,391.91 217.287,401.51C215.942,407.465 210.48,411.437 205.417,414.849L205.417,414.849ZM948.895,488.835C974.5,536.463 995.837,586.385 1012.57,637.805C1013.86,641.762 1013.46,648.065 1009.31,647.777C1007.89,647.679 1006.73,646.682 1005.67,645.734C970.25,613.865 934.827,581.997 899.405,550.129C896.176,547.224 892.634,543.373 893.707,539.165C896.277,529.089 891.926,517.623 883.319,511.789C879.84,509.431 880.599,504.183 881.756,500.142C887.689,479.41 893.622,458.677 899.555,437.945C900.025,436.302 900.676,434.449 902.261,433.81C903.942,433.132 905.79,434.168 907.271,435.213C925.938,448.374 938.08,468.718 948.895,488.835ZM443.273,510.814C443.644,511.539 444.025,512.349 443.816,513.136C443.277,515.16 440.23,514.449 438.473,513.308C384.617,478.334 330.761,443.36 276.905,408.386C275.133,407.236 273.323,406.05 272.058,404.359C269.16,400.483 269.898,394.801 272.511,390.727C275.123,386.654 279.238,383.824 283.242,381.107C298.258,370.913 313.274,360.72 328.29,350.526C333.338,347.099 338.794,343.54 344.896,343.531C356.17,343.515 363.524,354.987 368.66,365.023C375.364,378.122 382.068,391.221 388.772,404.321C406.939,439.818 425.106,475.316 443.273,510.814ZM224.528,373.86C190.274,351.848 156.019,329.837 121.765,307.825C118.03,305.425 113.793,301.971 114.53,297.593C116.677,284.854 108.19,271.185 95.821,267.46C92.056,266.326 90.788,261.706 90.33,257.8C89.398,249.834 89.308,241.769 90.063,233.783C119.595,234.415 149.103,236.172 178.501,239.049C180.515,239.246 182.649,239.496 184.236,240.75C185.911,242.073 186.63,244.237 187.264,246.275C200.423,288.583 212.847,331.12 224.528,373.86ZM621.387,653.561C623.326,657.82 621.252,663.63 624.52,666.978C629.142,671.713 626.736,679.551 624.061,685.602C616.507,702.69 608.952,719.777 601.398,736.864C599.347,741.504 596.499,746.777 591.475,747.485C585.355,748.348 580.942,741.968 578.117,736.47C549.226,680.261 520.336,624.053 491.445,567.844C533.342,593.698 574.73,620.378 615.577,647.861C617.859,649.396 620.247,651.059 621.387,653.561L621.387,653.561ZM753.24,388.279C751.473,392.569 748.2,397.709 743.673,396.694C739.788,395.823 736.289,400.388 732.368,399.695C730.767,399.412 729.463,398.29 728.246,397.213C704.667,376.334 681.088,355.455 657.509,334.576C659.005,334.018 660.668,334.484 662.195,334.953C693.965,344.712 725.527,355.151 756.851,366.259C758.663,366.902 760.813,368.001 760.797,369.924C758.278,376.042 755.759,382.161 753.24,388.279ZM779.005,375.119C780.279,374.794 781.608,375.254 782.841,375.711C816.042,388.015 848.529,402.244 880.084,418.304C882.326,419.446 884.748,420.796 885.629,423.153C886.383,425.171 885.805,427.415 885.221,429.488C878.824,452.228 872.427,474.968 866.03,497.708C864.904,501.711 863.332,506.232 859.471,507.776C854.787,509.648 849.85,506.038 846.095,502.669C823.341,482.258 800.587,461.846 777.834,441.434C775.226,439.095 772.367,435.696 773.841,432.519C777.254,425.159 775.966,415.859 770.681,409.704C763.265,401.068 769.322,387.918 775.51,378.364C776.396,376.996 777.426,375.521 779.005,375.119ZM21.178,242.393C19.665,241.418 18,240.21 17.798,238.421C33.131,235.894 48.611,234.264 64.133,233.54C66.254,233.441 68.559,233.412 70.271,234.669C72.412,236.241 72.843,239.21 73.099,241.854C73.653,247.58 74.207,253.306 74.761,259.032C75.015,261.658 75.261,264.372 74.45,266.883C73.639,269.394 71.481,271.668 68.844,271.754C66.892,271.816 65.115,270.719 63.474,269.661C49.376,260.572 35.277,251.483 21.178,242.393L21.178,242.393ZM370.726,294.923C366.084,291.607 360.092,290.246 354.473,291.23C353.167,291.459 351.832,291.809 350.533,291.541C348.055,291.029 346.594,288.529 345.443,286.276C341.374,278.309 337.305,270.341 333.236,262.373C332.778,261.478 332.318,260.404 332.782,259.512C333.388,258.35 335.034,258.381 336.33,258.579C361.542,262.42 386.703,266.597 411.805,271.109C413.057,271.334 414.45,271.649 415.146,272.714C403.557,280.419 391.967,288.124 380.378,295.829C379.073,296.696 377.668,297.595 376.102,297.596C374.063,297.598 372.385,296.107 370.726,294.923Z" style="fill:white;fill-rule:nonzero;stroke:white;stroke-width:89.95px;stroke-linecap:butt;stroke-miterlimit:2;"/>
                    </g>
                </g>
                <g transform="matrix(0.957356,0,0,0.957356,40.1929,40.1929)">
                    <path d="M1406.07,543.09C1448.82,568.308 1492.27,596.834 1516.86,639.952C1524.39,653.149 1530.07,667.599 1539.97,679.126C1549.14,689.808 1561.37,697.313 1573.34,704.735C1679.82,770.785 1781.78,844.125 1878.26,924.072C1882.79,927.819 1887.57,934.543 1883.48,938.753C1739.98,888.897 1597.75,835.381 1456.98,778.274C1438.33,770.71 1419.06,762.955 1398.94,763.352C1383.5,763.658 1368.51,768.803 1354.64,775.594C1325.12,790.041 1299.47,812.289 1281,839.463C1277.8,844.162 1274.68,849.143 1269.97,852.31C1265.25,855.476 1258.37,856.263 1254.15,852.451C1250.97,849.573 1250.13,844.99 1249.46,840.753C1234.13,743.505 1218.81,646.257 1203.48,549.008C1202.84,544.946 1202.29,540.432 1204.61,537.034C1206.57,534.16 1210.08,532.852 1213.36,531.71C1252.45,518.124 1293.75,504.344 1334.44,511.939C1360.17,516.743 1383.52,529.792 1406.07,543.09ZM940.046,1354.8C928.683,1340.61 906.737,1338.32 890.21,1345.9C873.683,1353.48 861.961,1368.85 853.783,1385.09C850.052,1369.34 846.321,1353.58 842.59,1337.83C842.134,1335.9 841.484,1333.73 839.69,1332.89C838.056,1332.12 836.143,1332.8 834.477,1333.49C822.427,1338.47 810.664,1344.15 799.266,1350.49C789.17,1356.1 779.031,1362.54 772.733,1372.22C765.999,1382.57 764.457,1395.37 763.406,1407.67C758.332,1467.06 760.533,1527.43 747.211,1585.53C741.503,1610.42 730.91,1637.11 707.922,1648.24C702.647,1650.79 696.617,1652.4 690.917,1651.04C685.218,1649.67 680.123,1644.68 680.137,1638.82C680.436,1515.61 680.714,1392.05 666.088,1269.71C658.737,1208.24 683.281,1147.92 707.325,1090.87C708.321,1088.5 709.489,1085.95 711.785,1084.8C714.184,1083.61 717.053,1084.32 719.632,1085.05C803.051,1108.81 886.469,1132.56 969.888,1156.32C977.645,1158.53 987.276,1163.59 985.642,1171.49C984.839,1175.37 981.408,1178.05 978.212,1180.39C948.125,1202.4 918.038,1224.41 887.951,1246.41C900.064,1243.98 913.463,1242.56 924.055,1248.92C934.647,1255.29 938.988,1272.46 929.161,1279.95C919.129,1287.59 909.098,1295.24 899.066,1302.89C935.159,1301.27 969.474,1332.62 971.128,1368.7C972.782,1404.8 941.477,1439.15 905.388,1440.84C918.863,1430.03 932.682,1418.81 940.998,1403.66C949.313,1388.52 950.843,1368.29 940.046,1354.8ZM1240.2,905.26C1222.86,937.699 1204.03,969.342 1183.79,1000.06C1174.15,1014.69 1164.17,1029.14 1152.6,1042.3C1135.03,1062.28 1114.08,1078.96 1093.17,1095.4C1075.97,1108.93 1058.71,1122.37 1041.38,1135.74C1037.43,1138.78 1032.65,1142.01 1027.85,1140.64C1021.04,1138.69 1019.94,1129.64 1020.18,1122.57C1022.18,1063.65 1024.17,1004.74 1026.17,945.823C1026.33,940.914 1027.18,934.964 1031.72,933.087C1041.48,929.05 1048.43,918.964 1048.73,908.403C1049.02,897.842 1042.65,887.385 1033.12,882.81C1028.89,880.774 1028.45,875.018 1028.61,870.32C1030.57,813.651 1032.53,756.983 1034.49,700.314C1034.53,699.072 1034.7,697.609 1035.79,697.006C1037.1,696.275 1038.66,697.362 1039.77,698.382C1099.66,753.423 1159.56,808.465 1219.45,863.506C1223.96,867.649 1228.84,872.64 1228.53,878.755C1228.03,888.751 1232.49,898.876 1240.2,905.26ZM720.721,1068.49C746.51,977.645 772.298,886.803 798.086,795.961C799.734,790.155 801.879,783.72 807.254,780.975C814.107,777.476 822.198,781.794 828.651,785.985C882.417,820.907 936.184,855.83 989.951,890.752C992.803,892.605 996.063,895.585 994.849,898.761C990.462,910.233 995.495,924.524 1006.1,930.716C1009.78,932.861 1010.09,937.959 1009.96,942.213C1008.58,988.412 1007.2,1034.61 1005.82,1080.81C1005.47,1092.58 1005.12,1104.35 1004.76,1116.12C1004.45,1126.81 1002.28,1140.07 992.07,1143.23C987.307,1144.7 982.183,1143.33 977.39,1141.96C891.834,1117.47 806.278,1092.98 720.721,1068.49ZM720.709,419.882C715.305,429.103 730.276,440.36 726.029,450.168C703.386,502.468 680.742,554.769 658.099,607.069C652.539,619.911 643.616,634.96 629.646,634.127C623.736,633.774 618.475,630.445 613.512,627.218C574.471,601.835 535.43,576.452 496.388,551.07C491.943,548.179 486.89,542.965 489.698,538.467C493.978,531.613 483.386,521.631 488.457,515.34C535.625,456.834 582.793,398.327 629.961,339.821C631.104,338.403 632.481,336.862 634.302,336.802C635.914,336.749 637.291,337.889 638.495,338.963C664.234,361.915 689.974,384.868 715.714,407.82C719.249,410.973 723.105,415.796 720.709,419.882ZM344.306,716.62C341.473,713.249 343.327,707.982 346.214,704.657C349.102,701.332 352.974,698.672 354.646,694.598C356.178,690.867 355.573,686.615 356.45,682.679C357.518,677.884 360.692,673.875 363.775,670.051C390.605,636.765 417.435,603.479 444.266,570.193C446.889,566.938 449.688,563.55 453.573,562.005C459.15,559.786 465.707,562.031 470.189,566.022C474.671,570.014 477.511,575.482 480.253,580.82C509.108,637.002 537.964,693.184 566.819,749.366C570.09,755.735 567.661,763.364 566.072,770.346C564.484,777.327 564.488,786.076 570.488,789.984C575.462,793.225 573.659,800.82 571.289,806.264C548,859.758 524.71,913.251 501.421,966.745C459.256,940.155 433.77,894.072 413.646,848.466C393.522,802.86 376.381,754.779 344.306,716.62ZM858.469,582.218C860.151,576.244 861.915,570.1 865.742,565.214C869.57,560.328 876.015,556.953 882.006,558.573C885.598,559.544 888.508,562.109 891.276,564.596C925.551,595.386 959.825,626.175 994.1,656.965C998.184,660.634 1002.67,665.467 1001.38,670.806C998.443,683.084 1018.67,690.463 1018.24,703.081C1016.28,760.883 1014.31,818.685 1012.35,876.487C1012.28,878.419 1012.06,880.65 1010.46,881.731C1008.47,883.07 1005.83,881.756 1003.82,880.453C948.178,844.382 892.536,808.311 836.893,772.24C833.745,770.2 830.145,766.873 831.557,763.398C836.024,752.405 831.699,738.54 821.774,732.036C817.874,729.481 818.676,723.636 819.939,719.148C829.221,686.161 838.503,653.174 847.785,620.187C851.347,607.531 854.908,594.875 858.469,582.218ZM614.569,757.637C612.033,754.533 613.499,749.931 615.071,746.243C621.674,730.75 628.277,715.257 634.881,699.764C636.979,694.842 639.2,689.745 643.225,686.219C649.062,681.104 657.732,680.323 665.239,682.288C672.746,684.253 679.382,688.581 685.868,692.841C711.622,709.757 737.375,726.673 763.129,743.588C768.057,746.825 773.071,750.139 776.761,754.737C788.002,768.747 783.622,789.167 778.682,806.436C774.094,822.475 769.506,838.514 764.918,854.553C750.03,906.602 735.141,958.651 720.252,1010.7C684.867,942.404 649.482,874.108 614.097,805.811C611.913,801.595 609.888,795.978 613.176,792.552C621.992,783.364 622.626,767.498 614.569,757.637L614.569,757.637ZM437.836,277.585C442.05,276.475 446.502,277.384 450.76,278.308C505.809,290.254 560.38,304.399 614.301,320.698C617.042,321.526 620.241,322.852 620.738,325.672C573.91,383.733 527.082,441.795 480.253,499.857C477.338,503.472 473.964,507.355 469.36,507.96C461.949,508.933 456.641,501.232 453.216,494.587C428.155,445.962 403.093,397.337 378.031,348.711C375.835,344.45 374.108,338.226 378.185,335.705C385.237,331.346 381.581,319.841 386.086,312.881C387.635,310.489 390.055,308.82 392.412,307.216C404.766,298.806 417.12,290.396 429.474,281.985C432.091,280.204 434.775,278.391 437.836,277.585ZM840.02,529.661C833.796,539.314 850.701,550.615 847.591,561.671C833.991,610.014 820.39,658.357 806.79,706.7C805.039,712.921 803.232,719.267 799.577,724.597C795.922,729.926 790.023,734.153 783.561,734.082C777.95,734.019 772.911,730.841 768.214,727.772C739.879,709.259 711.545,690.745 683.211,672.232C679.47,669.788 675.207,666.064 676.431,661.767C679.123,652.316 675.563,641.399 667.817,635.351C665.014,633.163 666.168,628.749 667.576,625.484C689.719,574.164 711.862,522.844 734.005,471.524C736.46,465.834 739.001,460.012 743.294,455.543C747.586,451.073 754.069,448.17 760.045,449.81C763.878,450.862 766.995,453.586 769.965,456.228C791.02,474.956 812.074,493.683 833.129,512.41C838.192,516.915 843.693,523.965 840.02,529.661L840.02,529.661ZM1179.26,546.888C1181.27,545.734 1183.96,544.642 1185.69,546.172C1186.65,547.024 1186.91,548.401 1187.11,549.672C1203.29,651.954 1219.46,754.236 1235.63,856.518C1175.67,801.342 1115.72,746.167 1055.76,690.991C1053.56,688.966 1051.16,685.978 1052.55,683.329C1059.43,670.219 1055.26,652.35 1043.29,643.643C1087.06,609.233 1131.02,574.693 1179.26,546.888ZM302.096,672.318C248.209,625.93 192.777,581.339 135.921,538.643C128.085,532.759 119.939,526.576 115.631,517.775C111.324,508.973 112.283,496.749 120.409,491.274C153.616,468.899 186.824,446.525 220.031,424.151C225.605,420.395 233.6,416.79 238.361,421.534C240.085,423.253 240.839,425.691 241.531,428.024C263.316,501.412 285.101,574.799 306.887,648.186C309.463,656.867 310.516,668.988 302.096,672.318ZM516.228,976.188C515.644,974.325 516.439,972.339 517.22,970.549C541.124,915.779 565.028,861.009 588.933,806.239C589.753,804.359 591.239,802.119 593.234,802.594C594.465,802.888 595.189,804.128 595.77,805.253C635.576,882.276 675.382,959.298 715.188,1036.32C647.835,1029.37 581.745,1010.36 521.001,980.442C519.033,979.472 516.884,978.282 516.228,976.188L516.228,976.188ZM311.112,256.718C313.496,258.624 314.946,261.432 316.327,264.154C321.702,274.746 327.077,285.338 332.452,295.93C336.759,304.417 325.326,315.033 329.816,323.424C331.892,327.304 327.771,331.501 324.136,333.981C306.448,346.045 288.761,358.11 271.074,370.174C269.596,371.182 268.055,372.216 266.289,372.503C264.231,372.838 262.164,372.114 260.205,371.401C255.06,369.531 249.916,367.66 244.772,365.789C242.929,365.119 241.007,364.397 239.7,362.935C238.527,361.624 237.995,359.877 237.496,358.19C226.629,321.462 215.761,284.735 204.894,248.008C204.273,245.91 203.899,243.122 205.781,242.007C206.72,241.452 207.894,241.571 208.976,241.707C239.33,245.536 269.684,249.366 300.038,253.195C303.933,253.686 308.046,254.266 311.112,256.718L311.112,256.718ZM352.796,657.831C348.617,662.937 340.505,660.872 334.401,658.366C331.35,657.112 328.152,655.75 326.145,653.133C324.753,651.318 324.073,649.071 323.421,646.878C301.293,572.465 279.164,498.051 257.036,423.638C256.566,422.058 256.142,420.196 257.144,418.888C258.729,416.821 262,418.087 264.187,419.501C316.828,453.523 369.469,487.546 422.11,521.568C426.139,524.172 430.273,526.875 433.017,530.81C437.598,537.377 437.436,546.348 434.599,553.835C431.762,561.322 426.606,567.662 421.534,573.857C398.622,601.849 375.709,629.84 352.796,657.831ZM89.53,488.732C31.669,425.359 -1.005,339.591 0.024,253.783C0.04,252.429 0.227,250.803 1.442,250.207C2.583,249.648 3.911,250.359 4.978,251.048C20.378,260.991 35.778,270.935 51.178,280.878C55.213,283.483 59.75,287.037 59.388,291.826C58.54,303.064 65.561,314.462 75.978,318.761C79.428,320.184 80.262,324.603 80.605,328.32C85.41,380.36 90.215,432.401 95.019,484.442C95.258,487.024 94.393,490.735 91.832,490.327C90.891,490.178 90.172,489.436 89.53,488.732L89.53,488.732ZM205.417,414.849C173.815,436.14 142.214,457.431 110.612,478.723C105.992,428.117 101.372,377.512 96.752,326.907C96.505,324.201 96.347,321.185 98.066,319.081C101.302,315.122 107.642,317.654 111.933,320.433C141.888,339.835 171.843,359.237 201.798,378.639C210.058,383.989 219.455,391.91 217.287,401.51C215.942,407.465 210.48,411.437 205.417,414.849L205.417,414.849ZM948.895,488.835C974.5,536.463 995.837,586.385 1012.57,637.805C1013.86,641.762 1013.46,648.065 1009.31,647.777C1007.89,647.679 1006.73,646.682 1005.67,645.734C970.25,613.865 934.827,581.997 899.405,550.129C896.176,547.224 892.634,543.373 893.707,539.165C896.277,529.089 891.926,517.623 883.319,511.789C879.84,509.431 880.599,504.183 881.756,500.142C887.689,479.41 893.622,458.677 899.555,437.945C900.025,436.302 900.676,434.449 902.261,433.81C903.942,433.132 905.79,434.168 907.271,435.213C925.938,448.374 938.08,468.718 948.895,488.835ZM443.273,510.814C443.644,511.539 444.025,512.349 443.816,513.136C443.277,515.16 440.23,514.449 438.473,513.308C384.617,478.334 330.761,443.36 276.905,408.386C275.133,407.236 273.323,406.05 272.058,404.359C269.16,400.483 269.898,394.801 272.511,390.727C275.123,386.654 279.238,383.824 283.242,381.107C298.258,370.913 313.274,360.72 328.29,350.526C333.338,347.099 338.794,343.54 344.896,343.531C356.17,343.515 363.524,354.987 368.66,365.023C375.364,378.122 382.068,391.221 388.772,404.321C406.939,439.818 425.106,475.316 443.273,510.814ZM224.528,373.86C190.274,351.848 156.019,329.837 121.765,307.825C118.03,305.425 113.793,301.971 114.53,297.593C116.677,284.854 108.19,271.185 95.821,267.46C92.056,266.326 90.788,261.706 90.33,257.8C89.398,249.834 89.308,241.769 90.063,233.783C119.595,234.415 149.103,236.172 178.501,239.049C180.515,239.246 182.649,239.496 184.236,240.75C185.911,242.073 186.63,244.237 187.264,246.275C200.423,288.583 212.847,331.12 224.528,373.86ZM621.387,653.561C623.326,657.82 621.252,663.63 624.52,666.978C629.142,671.713 626.736,679.551 624.061,685.602C616.507,702.69 608.952,719.777 601.398,736.864C599.347,741.504 596.499,746.777 591.475,747.485C585.355,748.348 580.942,741.968 578.117,736.47C549.226,680.261 520.336,624.053 491.445,567.844C533.342,593.698 574.73,620.378 615.577,647.861C617.859,649.396 620.247,651.059 621.387,653.561L621.387,653.561ZM753.24,388.279C751.473,392.569 748.2,397.709 743.673,396.694C739.788,395.823 736.289,400.388 732.368,399.695C730.767,399.412 729.463,398.29 728.246,397.213C704.667,376.334 681.088,355.455 657.509,334.576C659.005,334.018 660.668,334.484 662.195,334.953C693.965,344.712 725.527,355.151 756.851,366.259C758.663,366.902 760.813,368.001 760.797,369.924C758.278,376.042 755.759,382.161 753.24,388.279ZM779.005,375.119C780.279,374.794 781.608,375.254 782.841,375.711C816.042,388.015 848.529,402.244 880.084,418.304C882.326,419.446 884.748,420.796 885.629,423.153C886.383,425.171 885.805,427.415 885.221,429.488C878.824,452.228 872.427,474.968 866.03,497.708C864.904,501.711 863.332,506.232 859.471,507.776C854.787,509.648 849.85,506.038 846.095,502.669C823.341,482.258 800.587,461.846 777.834,441.434C775.226,439.095 772.367,435.696 773.841,432.519C777.254,425.159 775.966,415.859 770.681,409.704C763.265,401.068 769.322,387.918 775.51,378.364C776.396,376.996 777.426,375.521 779.005,375.119ZM21.178,242.393C19.665,241.418 18,240.21 17.798,238.421C33.131,235.894 48.611,234.264 64.133,233.54C66.254,233.441 68.559,233.412 70.271,234.669C72.412,236.241 72.843,239.21 73.099,241.854C73.653,247.58 74.207,253.306 74.761,259.032C75.015,261.658 75.261,264.372 74.45,266.883C73.639,269.394 71.481,271.668 68.844,271.754C66.892,271.816 65.115,270.719 63.474,269.661C49.376,260.572 35.277,251.483 21.178,242.393L21.178,242.393ZM370.726,294.923C366.084,291.607 360.092,290.246 354.473,291.23C353.167,291.459 351.832,291.809 350.533,291.541C348.055,291.029 346.594,288.529 345.443,286.276C341.374,278.309 337.305,270.341 333.236,262.373C332.778,261.478 332.318,260.404 332.782,259.512C333.388,258.35 335.034,258.381 336.33,258.579C361.542,262.42 386.703,266.597 411.805,271.109C413.057,271.334 414.45,271.649 415.146,272.714C403.557,280.419 391.967,288.124 380.378,295.829C379.073,296.696 377.668,297.595 376.102,297.596C374.063,297.598 372.385,296.107 370.726,294.923Z" style="fill:url(#_Linear1);fill-rule:nonzero;"/>
                </g>
            </g>
        </g>
    </g>
    <defs>
        <linearGradient id="_Linear1" x1="0" y1="0" x2="1" y2="0" gradientUnits="userSpaceOnUse" gradientTransform="matrix(940.34,591.87,-591.87,940.34,215.094,443.782)"><stop offset="0" style="stop-color:rgb(0,255,254);stop-opacity:1"/><stop offset="0.5" style="stop-color:rgb(79,90,220);stop-opacity:1"/><stop offset="1" style="stop-color:rgb(255,0,158);stop-opacity:1"/></linearGradient>
    </defs>
</svg>
